<?xml version="1.0" encoding="utf-8"?>
<!-- Generator: Adobe Illustrator 23.0.1, SVG Export Plug-In . SVG Version: 6.00 Build 0)  -->
<svg version="1.1" id="Layer_1" focusable="false" xmlns="http://www.w3.org/2000/svg" xmlns:xlink="http://www.w3.org/1999/xlink"
	 x="0px" y="0px" viewBox="0 0 576 512" style="enable-background:new 0 0 576 512;" xml:space="preserve">
<style type="text/css">
	.st0{fill:#FFFFFF;stroke:#FFFFFF;stroke-miterlimit:10;}
</style>
<path class="st0" d="M275.3,250.5c7,7.4,18.4,7.4,25.5,0l108.9-114.2c31.6-33.2,29.8-88.2-5.6-118.8c-30.8-26.7-76.7-21.9-104.9,7.7
	L288,36.9l-11.1-11.6C248.7-4.4,202.8-9.2,172,17.5c-35.3,30.6-37.2,85.6-5.6,118.8L275.3,250.5z M565.3,328.1
	c-11.8-10.7-30.2-10-42.6,0L430.3,402c-11.3,9.1-25.4,14-40,14H272c-8.8,0-16-7.2-16-16s7.2-16,16-16h78.3
	c15.9,0,30.7-10.9,33.3-26.6c3.3-20-12.1-37.4-31.6-37.4H192c-27,0-53.1,9.3-74.1,26.3L71.4,384H16c-8.8,0-16,7.2-16,16v96
	c0,8.8,7.2,16,16,16h356.8c14.5,0,28.6-4.9,40-14L564,377C579.2,364.9,580.4,341.7,565.3,328.1z"/>
</svg>
